# Blender v2.78 (sub 0) OBJ File: ''
# www.blender.org
mtllib crate.mtl
o Cube
v 1.000000 -1.000127 -1.000000
v 1.000000 -1.000127 1.000000
v -1.000000 -1.000127 1.000000
v -1.000000 -1.000127 -1.000000
v 1.000000 0.999873 -0.999999
v 0.999999 0.999873 1.000001
v -1.000000 0.999873 1.000000
v -1.000000 0.999873 -1.000000
vt 0.3682 0.9823
vt 0.6095 0.7412
vt 0.6094 0.9824
vt 0.6096 0.5001
vt 0.3686 0.2588
vt 0.6097 0.2589
vt 0.3687 0.0176
vt 0.6099 0.0178
vt 0.1273 0.4998
vt 0.1274 0.2587
vt 0.3683 0.7411
vt 0.8509 0.2591
vt 0.3685 0.5000
vt 0.8508 0.5002
vn 0.0000 -1.0000 0.0000
vn 0.0000 1.0000 0.0000
vn 1.0000 -0.0000 0.0000
vn 0.0000 -0.0000 1.0000
vn -1.0000 -0.0000 -0.0000
vn 0.0000 0.0000 -1.0000
usemtl Material
s off
f 2/1/1 4/2/1 1/3/1
f 8/4/2 6/5/2 5/6/2
f 5/6/3 2/7/3 1/8/3
f 6/5/4 3/9/4 2/10/4
f 3/11/5 8/4/5 4/2/5
f 1/12/6 8/4/6 5/6/6
f 2/1/1 3/11/1 4/2/1
f 8/4/2 7/13/2 6/5/2
f 5/6/3 6/5/3 2/7/3
f 6/5/4 7/13/4 3/9/4
f 3/11/5 7/13/5 8/4/5
f 1/12/6 4/14/6 8/4/6
