# Blender v2.78 (sub 0) OBJ File: ''
# www.blender.org
o Cube.001_Cube.003
v -0.559742 1.738610 0.559742
v -0.559742 1.738610 -0.559742
v 0.559742 1.738610 0.559742
v 0.559742 1.738610 -0.559742
v -0.559742 0.454297 -0.559742
v 0.559742 0.866882 -0.559742
v 0.559742 1.278222 0.559742
v -0.559742 0.866882 0.559742
vn -1.0000 0.0000 0.0000
vn -0.0000 0.0000 -1.0000
vn 1.0000 0.0000 0.0000
vn -0.0000 0.0000 1.0000
vn 0.0000 1.0000 0.0000
vn 0.3260 -0.8873 0.3260
vn 0.3268 -0.8868 0.3268
s off
f 8//1 2//1 5//1
f 2//2 6//2 5//2
f 4//3 7//3 6//3
f 7//4 1//4 8//4
f 2//5 3//5 4//5
f 8//6 6//6 7//6
f 8//1 1//1 2//1
f 2//2 4//2 6//2
f 4//3 3//3 7//3
f 7//4 3//4 1//4
f 2//5 1//5 3//5
f 8//7 5//7 6//7
